<svg width="347" height="135" viewBox="0 0 347 135" fill="none" xmlns="http://www.w3.org/2000/svg">
<g clip-path="url(#clip0_6_544)">
<path fill-rule="evenodd" clip-rule="evenodd" d="M143.802 97.838V95.2662L133.546 97.9089H133.525V100.547H133.546L143.802 103.19V100.614L138.546 99.2219L143.802 97.838V97.838Z" fill="#996DFF"/>
<path fill-rule="evenodd" clip-rule="evenodd" d="M203.209 103.057V100.485L208.462 99.101L203.209 97.7171V95.1453L213.45 97.7859H213.474V100.427H213.45L203.209 103.055V103.057ZM198.81 91.5126L192.787 104.905H196.364L202.387 91.5126H198.81Z" fill="#996DFF"/>
<path fill-rule="evenodd" clip-rule="evenodd" d="M158.872 94.7805C159.889 95.5558 160.425 96.577 160.361 97.6232V103.328H156.784V98.1464C156.826 97.5691 156.559 97.0022 156.038 96.552C155.542 96.1518 154.808 95.9309 154.046 95.9539C151.808 95.9539 150.686 97.0293 150.686 99.1822V103.33H147.109V93.9635H150.686V94.8097C151.82 94.0448 153.361 93.6384 154.943 93.6842C156.417 93.6405 157.849 94.0406 158.869 94.7805H158.872Z" fill="white"/>
<path fill-rule="evenodd" clip-rule="evenodd" d="M164.913 90.0683V103.461H168.49V90.0683H164.913Z" fill="white"/>
<path fill-rule="evenodd" clip-rule="evenodd" d="M188.701 102.971H185.717L182.792 97.4544L179.841 102.971H176.862L171.85 93.5884H175.671L178.487 99.1989L181.39 93.5884H184.179L187.082 99.2176L189.898 93.5884H193.719L188.701 102.971V102.971Z" fill="white"/>
<path d="M14.5828 21.8669C18.6322 15.0914 26.8094 9.7518 38.8796 5.99826C50.4443 2.40103 65.0989 0.400257 82.431 0.0542898C117.962 -0.656402 160.854 5.64187 203.199 17.7945C206.244 18.6678 209.261 19.5639 212.246 20.483L208.025 20.4914C206.214 19.9474 204.387 19.4118 202.546 18.8845C115.789 -6.00848 32.1736 -4.4683 16.1562 22.3192C11.5171 30.0763 13.0484 39.1111 19.6732 48.6398C35.9162 72.0197 82.81 98.3653 144.449 116.051C150.412 117.762 156.38 119.355 162.34 120.828C198.5 129.773 234.214 134.306 264.516 133.7C281.625 133.358 296.057 131.393 307.417 127.86C319.081 124.234 326.961 119.105 330.839 112.617C334.338 106.762 334.326 100.181 331.26 93.2071L332.569 92.1837C336.161 99.8701 336.113 106.887 332.415 113.069C328.363 119.844 320.188 125.184 308.115 128.938C296.551 132.535 281.899 134.536 264.567 134.882C262.756 134.917 260.927 134.936 259.079 134.936C228.534 134.936 193.054 130.003 157.358 120.828C152.836 119.667 148.315 118.438 143.796 117.141C101.451 104.991 64.6927 88.4365 40.2936 70.5274C30.6994 63.4851 23.4308 56.5366 18.6142 49.8069C17.4529 48.1875 16.436 46.5827 15.5635 44.9925C10.8612 36.4246 10.5303 28.6445 14.5828 21.8669V21.8669Z" fill="url(#paint0_linear_6_544)"/>
<path d="M14.5828 21.8669C18.6322 15.0914 26.8094 9.7518 38.8796 5.99826C50.4443 2.40103 65.0989 0.400257 82.431 0.0542898C117.962 -0.656402 160.854 5.64187 203.199 17.7945C206.244 18.6678 209.261 19.5639 212.246 20.483L208.025 20.4914C206.214 19.9474 204.387 19.4118 202.546 18.8845C115.789 -6.00848 32.1736 -4.4683 16.1562 22.3192C11.5171 30.0763 13.0484 39.1111 19.6732 48.6398C35.9162 72.0197 82.81 98.3653 144.449 116.051C150.412 117.762 156.38 119.355 162.34 120.828C198.5 129.773 234.214 134.306 264.516 133.7C281.625 133.358 296.057 131.393 307.417 127.86C319.081 124.234 326.961 119.105 330.839 112.617C334.338 106.762 334.326 100.181 331.26 93.2071L332.569 92.1837C336.161 99.8701 336.113 106.887 332.415 113.069C328.363 119.844 320.188 125.184 308.115 128.938C296.551 132.535 281.899 134.536 264.567 134.882C262.756 134.917 260.927 134.936 259.079 134.936C228.534 134.936 193.054 130.003 157.358 120.828C152.836 119.667 148.315 118.438 143.796 117.141C101.451 104.991 64.6927 88.4365 40.2936 70.5274C30.6994 63.4851 23.4308 56.5366 18.6142 49.8069C17.4529 48.1875 16.436 46.5827 15.5635 44.9925C10.8612 36.4246 10.5303 28.6445 14.5828 21.8669V21.8669Z" fill="url(#paint1_radial_6_544)"/>
<path d="M14.5828 21.8669C18.6322 15.0914 26.8094 9.7518 38.8796 5.99826C50.4443 2.40103 65.0989 0.400257 82.431 0.0542898C117.962 -0.656402 160.854 5.64187 203.199 17.7945C206.244 18.6678 209.261 19.5639 212.246 20.483L208.025 20.4914C206.214 19.9474 204.387 19.4118 202.546 18.8845C115.789 -6.00848 32.1736 -4.4683 16.1562 22.3192C11.5171 30.0763 13.0484 39.1111 19.6732 48.6398C35.9162 72.0197 82.81 98.3653 144.449 116.051C150.412 117.762 156.38 119.355 162.34 120.828C198.5 129.773 234.214 134.306 264.516 133.7C281.625 133.358 296.057 131.393 307.417 127.86C319.081 124.234 326.961 119.105 330.839 112.617C334.338 106.762 334.326 100.181 331.26 93.2071L332.569 92.1837C336.161 99.8701 336.113 106.887 332.415 113.069C328.363 119.844 320.188 125.184 308.115 128.938C296.551 132.535 281.899 134.536 264.567 134.882C262.756 134.917 260.927 134.936 259.079 134.936C228.534 134.936 193.054 130.003 157.358 120.828C152.836 119.667 148.315 118.438 143.796 117.141C101.451 104.991 64.6927 88.4365 40.2936 70.5274C30.6994 63.4851 23.4308 56.5366 18.6142 49.8069C17.4529 48.1875 16.436 46.5827 15.5635 44.9925C10.8612 36.4246 10.5303 28.6445 14.5828 21.8669V21.8669Z" fill="url(#paint2_radial_6_544)"/>
<path d="M14.5828 21.8669C18.6322 15.0914 26.8094 9.7518 38.8796 5.99826C50.4443 2.40103 65.0989 0.400257 82.431 0.0542898C117.962 -0.656402 160.854 5.64187 203.199 17.7945C206.244 18.6678 209.261 19.5639 212.246 20.483L208.025 20.4914C206.214 19.9474 204.387 19.4118 202.546 18.8845C115.789 -6.00848 32.1736 -4.4683 16.1562 22.3192C11.5171 30.0763 13.0484 39.1111 19.6732 48.6398C35.9162 72.0197 82.81 98.3653 144.449 116.051C150.412 117.762 156.38 119.355 162.34 120.828C198.5 129.773 234.214 134.306 264.516 133.7C281.625 133.358 296.057 131.393 307.417 127.86C319.081 124.234 326.961 119.105 330.839 112.617C334.338 106.762 334.326 100.181 331.26 93.2071L332.569 92.1837C336.161 99.8701 336.113 106.887 332.415 113.069C328.363 119.844 320.188 125.184 308.115 128.938C296.551 132.535 281.899 134.536 264.567 134.882C262.756 134.917 260.927 134.936 259.079 134.936C228.534 134.936 193.054 130.003 157.358 120.828C152.836 119.667 148.315 118.438 143.796 117.141C101.451 104.991 64.6927 88.4365 40.2936 70.5274C30.6994 63.4851 23.4308 56.5366 18.6142 49.8069C17.4529 48.1875 16.436 46.5827 15.5635 44.9925C10.8612 36.4246 10.5303 28.6445 14.5828 21.8669V21.8669Z" fill="url(#paint3_radial_6_544)"/>
<path d="M270.372 16.2997C268.456 9.5242 264.586 4.18463 258.874 0.431091C253.401 -3.16614 246.466 -5.16691 238.264 -5.51288C221.449 -6.22357 201.15 0.0747025 181.111 12.2273C179.67 13.1006 178.242 13.9968 176.83 14.9159L178.827 14.9242C179.685 14.3802 180.549 13.8446 181.42 13.3173C222.477 -11.5756 262.047 -10.0355 269.627 16.752C271.823 24.5092 271.098 33.5439 267.963 43.0726C260.276 66.4525 238.084 92.7981 208.914 110.484C206.092 112.195 203.268 113.788 200.447 115.261C183.335 124.206 166.434 128.739 152.094 128.133C143.997 127.791 137.167 125.826 131.791 122.293C126.271 118.666 122.542 113.537 120.707 107.049C119.051 101.195 119.057 94.6134 120.508 87.6399L119.888 86.6166C118.188 94.3029 118.211 101.32 119.961 107.502C121.879 114.277 125.747 119.617 131.461 123.37C136.933 126.968 143.867 128.968 152.069 129.314C152.926 129.35 153.792 129.369 154.666 129.369C169.122 129.369 185.912 124.435 202.805 115.261C204.945 114.1 207.085 112.871 209.223 111.574C229.263 99.4236 246.658 82.8693 258.205 64.9603C262.745 57.918 266.185 50.9694 268.464 44.2397C269.014 42.6204 269.495 41.0156 269.908 39.4254C272.133 30.8575 272.29 23.0774 270.372 16.2997V16.2997Z" fill="url(#paint4_linear_6_544)"/>
<path d="M270.372 16.2997C268.456 9.5242 264.586 4.18463 258.874 0.431091C253.401 -3.16614 246.466 -5.16691 238.264 -5.51288C221.449 -6.22357 201.15 0.0747025 181.111 12.2273C179.67 13.1006 178.242 13.9968 176.83 14.9159L178.827 14.9242C179.685 14.3802 180.549 13.8446 181.42 13.3173C222.477 -11.5756 262.047 -10.0355 269.627 16.752C271.823 24.5092 271.098 33.5439 267.963 43.0726C260.276 66.4525 238.084 92.7981 208.914 110.484C206.092 112.195 203.268 113.788 200.447 115.261C183.335 124.206 166.434 128.739 152.094 128.133C143.997 127.791 137.167 125.826 131.791 122.293C126.271 118.666 122.542 113.537 120.707 107.049C119.051 101.195 119.057 94.6134 120.508 87.6399L119.888 86.6166C118.188 94.3029 118.211 101.32 119.961 107.502C121.879 114.277 125.747 119.617 131.461 123.37C136.933 126.968 143.867 128.968 152.069 129.314C152.926 129.35 153.792 129.369 154.666 129.369C169.122 129.369 185.912 124.435 202.805 115.261C204.945 114.1 207.085 112.871 209.223 111.574C229.263 99.4236 246.658 82.8693 258.205 64.9603C262.745 57.918 266.185 50.9694 268.464 44.2397C269.014 42.6204 269.495 41.0156 269.908 39.4254C272.133 30.8575 272.29 23.0774 270.372 16.2997V16.2997Z" fill="url(#paint5_radial_6_544)"/>
<path d="M270.372 16.2997C268.456 9.5242 264.586 4.18463 258.874 0.431091C253.401 -3.16614 246.466 -5.16691 238.264 -5.51288C221.449 -6.22357 201.15 0.0747025 181.111 12.2273C179.67 13.1006 178.242 13.9968 176.83 14.9159L178.827 14.9242C179.685 14.3802 180.549 13.8446 181.42 13.3173C222.477 -11.5756 262.047 -10.0355 269.627 16.752C271.823 24.5092 271.098 33.5439 267.963 43.0726C260.276 66.4525 238.084 92.7981 208.914 110.484C206.092 112.195 203.268 113.788 200.447 115.261C183.335 124.206 166.434 128.739 152.094 128.133C143.997 127.791 137.167 125.826 131.791 122.293C126.271 118.666 122.542 113.537 120.707 107.049C119.051 101.195 119.057 94.6134 120.508 87.6399L119.888 86.6166C118.188 94.3029 118.211 101.32 119.961 107.502C121.879 114.277 125.747 119.617 131.461 123.37C136.933 126.968 143.867 128.968 152.069 129.314C152.926 129.35 153.792 129.369 154.666 129.369C169.122 129.369 185.912 124.435 202.805 115.261C204.945 114.1 207.085 112.871 209.223 111.574C229.263 99.4236 246.658 82.8693 258.205 64.9603C262.745 57.918 266.185 50.9694 268.464 44.2397C269.014 42.6204 269.495 41.0156 269.908 39.4254C272.133 30.8575 272.29 23.0774 270.372 16.2997V16.2997Z" fill="url(#paint6_radial_6_544)"/>
<mask id="mask0_6_544" style="mask-type:alpha" maskUnits="userSpaceOnUse" x="87" y="15" width="192" height="105">
<rect x="87.2509" y="15.3758" width="191.34" height="104.624" fill="url(#paint7_linear_6_544)"/>
</mask>
<g mask="url(#mask0_6_544)">
<path d="M254.609 29.1166L243.794 24.5795L199.255 24.7545L191.545 21.2761L185.022 24.6795L157.145 24.5836L146.1 18.2228H130.039L127.555 24.5816H113.557L87.2509 77.1936L116.534 118.706H249.37L278.654 77.1936L254.608 29.1146L254.609 29.1166ZM248.695 116.824H117.21L89.1195 77.0019L114.389 26.4635H128.493L130.975 20.1048H145.773L156.815 26.4635L185.319 26.5615L191.583 23.2915L198.995 26.6365L243.552 26.4614L253.624 30.686L276.785 76.9977L248.695 116.819V116.824Z" fill="url(#paint8_linear_6_544)"/>
</g>
<path d="M276.787 77.0017L248.695 116.821H117.21L89.1195 77.0017L114.389 26.4633H128.493L130.975 20.1046H145.773L156.817 26.4633L185.319 26.5634L191.583 23.2933L198.995 26.6384L243.552 26.4633L253.623 30.69L276.787 77.0017Z" fill="url(#paint9_linear_6_544)"/>
<path d="M276.783 77.0017L253.625 30.69L243.55 26.4654L198.996 26.6363L191.585 23.2913L185.317 26.5613L156.815 26.4654L145.773 20.1067H130.976L128.494 26.4654H114.392L89.1207 77.0017H106.019L118.756 88.8917H139.383L142.472 77.0017H155.852L158.927 60.1785H161.979L166.101 57.9234L165.237 69.3404L176.634 77.0017H276.783Z" fill="#4A357D"/>
<path d="M98.0691 70.7889H112.465L114.94 64.8282H108.555L113.073 54.8827L120.474 51.4981L122.812 45.8709L115.768 48.9492L119.516 40.6939L117.308 36.5027H121.422H126.702L128.29 32.6783H117.127L98.0691 70.7889Z" fill="white"/>
<path d="M134.062 26.3173L125.705 47.7339L135.838 55.2869L139.814 57.867L133.796 61.9707L129.55 75.8698H122.734L130.023 54.7095L124.578 50.6205L114.284 76.9953L120.389 82.6787H135.794L143.426 53.284L132.997 46.0749L138.611 29.777H143.629L147.044 31.5797L142.213 34.4121L138.916 45.21L144.537 49.0032L149.674 29.2142L144.686 26.3173H134.062Z" fill="white"/>
<path d="M152.849 32.6779L144.133 70.7885H151.911L154.988 53.9653H160.949L168.354 49.9158L169.726 35.9229L164.011 32.6779H152.847H152.849ZM162.844 40.804L161.649 49.1093H155.878L158.183 36.5002H163.463L167.36 38.4906L162.844 40.8019V40.804Z" fill="white"/>
<path d="M172.982 32.6779L170.473 65.8137L177.874 70.7885H192.27L190.357 35.9229L184.147 32.6779H172.984H172.982ZM184.252 44.4033L184.438 64.8258H178.054L178.902 36.5002H184.182L188.239 38.4906L184.253 44.4033H184.252Z" fill="white"/>
<path d="M194.614 35.9375L197.626 70.7885H205.404L203.178 53.9653H209.139L212.02 70.7885H219.8L216.31 54.7094L211.731 52.2751L215.269 49.9158L211.527 32.6779H200.364L194.614 35.9375V35.9375ZM208.309 49.1093H202.538L201.446 40.8477L196.942 38.4927L200.87 36.5023H206.15L208.309 49.1114V49.1093Z" fill="white"/>
<path d="M214.413 36.5023H219.612L228.89 70.7885H236.67L227.131 40.6435L221.683 36.4565H230.923L229.586 32.6779H213.525L214.413 36.5023Z" fill="white"/>
<path d="M256.942 49.003L250.379 35.8792L242.745 32.6779H231.582L237.145 47.7337L253.014 55.2867L257.349 64.8279H250.963L246.763 54.7094L238.21 50.6203L243.822 65.8137L253.439 70.7885H267.835L259.082 53.2838L243.177 46.0748L240.948 40.706L235.092 36.5023H244.483L248.438 45.2099L256.942 49.003Z" fill="white"/>
<path d="M191.845 28.1115C191.03 29.1098 190.107 30.0351 189.094 30.875C190.202 31.7233 191.256 32.6903 192.24 33.7595C193.075 32.6903 193.994 31.7233 194.983 30.875C193.851 30.0351 192.799 29.1098 191.845 28.1115Z" fill="#E2D45C"/>
<path d="M106.841 66.0785L111.513 55.7911C109.78 56.0392 108.063 56.2934 106.36 56.5581L99.8699 69.5381H111.861L113.297 66.0785H106.841V66.0785Z" fill="url(#paint10_linear_6_544)"/>
<path d="M140.335 52.575C138.48 52.7272 136.636 52.8897 134.804 53.0627L136.321 54.1923L141.304 57.4248L142.224 53.8797L140.335 52.575V52.575ZM134.593 62.8478L130.235 77.12H121.219L128.763 55.2198L126.948 53.8568C126.065 53.9527 125.184 54.0506 124.308 54.1527L115.544 76.6094L120.718 81.4279H135.071L141.035 58.4565L134.593 62.8478V62.8478Z" fill="url(#paint11_linear_6_544)"/>
<path d="M163.61 51.1475L160.744 52.7147H154.197L151.121 69.5379H145.457L149.491 51.8957C154.134 51.5893 158.842 51.3392 163.61 51.1475Z" fill="url(#paint12_linear_6_544)"/>
<path d="M191.203 69.5381H178.125L171.527 65.1051L172.607 50.8517C174.225 50.81 175.848 50.7767 177.478 50.7496L177.02 66.0784H185.445L185.306 50.6683C186.051 50.6662 186.797 50.6641 187.546 50.6641C188.422 50.6641 189.297 50.6662 190.168 50.6704L191.203 69.5381V69.5381Z" fill="url(#paint13_linear_6_544)"/>
<path d="M218.497 69.5379H212.825L209.944 52.7148H202.003L204.229 69.5379H198.519L196.894 50.7369C201.753 50.8119 206.56 50.9474 211.31 51.1391L209.416 52.4021L215.477 55.6242L218.497 69.5379V69.5379Z" fill="url(#paint14_linear_6_544)"/>
<path d="M229.711 52.1812C228.088 52.0624 226.456 51.9498 224.817 51.8456L229.605 69.5379H235.204L229.711 52.1812Z" fill="url(#paint15_linear_6_544)"/>
<path d="M258.837 55.143C257.172 54.9242 255.496 54.7116 253.807 54.5074L259.064 66.0785H250.36L246.055 55.7099L240.574 53.0881C240.451 53.0756 240.33 53.0652 240.207 53.0547L244.563 64.8447L253.636 69.5382H266.035L258.837 55.143V55.143Z" fill="url(#paint16_linear_6_544)"/>
</g>
<defs>
<linearGradient id="paint0_linear_6_544" x1="314.842" y1="96.6" x2="80.485" y2="98.3371" gradientUnits="userSpaceOnUse">
<stop stop-color="#996DFF"/>
<stop offset="0.5" stop-color="#35E8B3"/>
<stop offset="1" stop-color="#E2D45C"/>
</linearGradient>
<radialGradient id="paint1_radial_6_544" cx="0" cy="0" r="1" gradientUnits="userSpaceOnUse" gradientTransform="translate(171.359 123.308) rotate(11.0629) scale(154.492 184.814)">
<stop stop-color="#171226"/>
<stop offset="1" stop-color="#171226" stop-opacity="0"/>
</radialGradient>
<radialGradient id="paint2_radial_6_544" cx="0" cy="0" r="1" gradientUnits="userSpaceOnUse" gradientTransform="translate(211.754 21.0838) rotate(-163.641) scale(34.0259 42.5073)">
<stop stop-color="#261945"/>
<stop offset="1" stop-color="#261945" stop-opacity="0"/>
</radialGradient>
<radialGradient id="paint3_radial_6_544" cx="0" cy="0" r="1" gradientUnits="userSpaceOnUse" gradientTransform="translate(332.941 90.4683) rotate(71.1985) scale(28.6163 64.8903)">
<stop stop-color="#191326"/>
<stop offset="1" stop-color="#191326" stop-opacity="0"/>
</radialGradient>
<linearGradient id="paint4_linear_6_544" x1="199.391" y1="9.38318" x2="245.429" y2="89.1165" gradientUnits="userSpaceOnUse">
<stop stop-color="#996DFF"/>
<stop offset="0.5" stop-color="#35E8B3"/>
<stop offset="1" stop-color="#E2D45C"/>
</linearGradient>
<radialGradient id="paint5_radial_6_544" cx="0" cy="0" r="1" gradientUnits="userSpaceOnUse" gradientTransform="translate(175.299 17.5611) rotate(-27.2089) scale(40.2425 86.9149)">
<stop stop-color="#171225"/>
<stop offset="1" stop-color="#171225" stop-opacity="0"/>
</radialGradient>
<radialGradient id="paint6_radial_6_544" cx="0" cy="0" r="1" gradientUnits="userSpaceOnUse" gradientTransform="translate(119.956 86.1789) rotate(74.1786) scale(35.8591 44.1343)">
<stop stop-color="#191327"/>
<stop offset="1" stop-color="#191327" stop-opacity="0"/>
</radialGradient>
<linearGradient id="paint7_linear_6_544" x1="182.921" y1="64.0405" x2="182.921" y2="115.31" gradientUnits="userSpaceOnUse">
<stop stop-color="#D9D9D9"/>
<stop offset="1" stop-color="#D9D9D9" stop-opacity="0"/>
</linearGradient>
<linearGradient id="paint8_linear_6_544" x1="87.2509" y1="68.4631" x2="278.655" y2="68.4631" gradientUnits="userSpaceOnUse">
<stop stop-color="#996DFF"/>
<stop offset="0.5" stop-color="#35E8B3"/>
<stop offset="1" stop-color="#E2D45C"/>
</linearGradient>
<linearGradient id="paint9_linear_6_544" x1="182.952" y1="78.5085" x2="182.952" y2="115.831" gradientUnits="userSpaceOnUse">
<stop stop-color="#28203E"/>
<stop offset="1" stop-color="#121214" stop-opacity="0"/>
</linearGradient>
<linearGradient id="paint10_linear_6_544" x1="106.584" y1="52.4523" x2="106.584" y2="67.1601" gradientUnits="userSpaceOnUse">
<stop stop-color="#A9A9AD"/>
<stop offset="1" stop-color="#A9A9AD" stop-opacity="0"/>
</linearGradient>
<linearGradient id="paint11_linear_6_544" x1="128.885" y1="52.4521" x2="128.885" y2="67.1599" gradientUnits="userSpaceOnUse">
<stop stop-color="#A9A9AD"/>
<stop offset="1" stop-color="#A9A9AD" stop-opacity="0"/>
</linearGradient>
<linearGradient id="paint12_linear_6_544" x1="154.534" y1="52.4521" x2="154.534" y2="67.1599" gradientUnits="userSpaceOnUse">
<stop stop-color="#A9A9AD"/>
<stop offset="1" stop-color="#A9A9AD" stop-opacity="0"/>
</linearGradient>
<linearGradient id="paint13_linear_6_544" x1="181.366" y1="52.4523" x2="181.366" y2="67.1601" gradientUnits="userSpaceOnUse">
<stop stop-color="#A9A9AD"/>
<stop offset="1" stop-color="#A9A9AD" stop-opacity="0"/>
</linearGradient>
<linearGradient id="paint14_linear_6_544" x1="207.696" y1="52.4522" x2="207.696" y2="67.1599" gradientUnits="userSpaceOnUse">
<stop stop-color="#A9A9AD"/>
<stop offset="1" stop-color="#A9A9AD" stop-opacity="0"/>
</linearGradient>
<linearGradient id="paint15_linear_6_544" x1="230.011" y1="52.4521" x2="230.011" y2="67.1599" gradientUnits="userSpaceOnUse">
<stop stop-color="#A9A9AD"/>
<stop offset="1" stop-color="#A9A9AD" stop-opacity="0"/>
</linearGradient>
<linearGradient id="paint16_linear_6_544" x1="253.121" y1="52.4524" x2="253.121" y2="67.1602" gradientUnits="userSpaceOnUse">
<stop stop-color="#A9A9AD"/>
<stop offset="1" stop-color="#A9A9AD" stop-opacity="0"/>
</linearGradient>
<clipPath id="clip0_6_544">
<rect width="347" height="134.936" fill="white"/>
</clipPath>
</defs>
</svg>
